<svg width="1126" height="1771" viewBox="0 0 1126 1771" fill="none" xmlns="http://www.w3.org/2000/svg">
<g id="skeleton">
<g id="ribs">
<path id="rib_01" d="M309.791 714.67C347.829 671.156 463.145 668.876 516.048 673.175C514.977 676.913 516.047 686.745 528.898 696.166C544.962 707.941 525.686 711.306 501.269 721.399C476.852 731.493 512.835 697.287 488.418 689.437C464.001 681.586 488.418 701.773 469.784 702.895C451.15 704.016 442.797 688.876 424.806 689.437C406.815 689.998 309.791 698.969 313.646 753.362C317.501 807.754 424.806 790.371 452.435 785.885C480.065 781.399 462.716 772.988 488.418 765.698C514.12 758.409 545.605 761.212 501.269 785.885C456.933 810.558 373.403 808.315 350.271 803.829C327.139 799.343 262.242 769.063 309.791 714.67Z" stroke="black"/>
<path id="rib_02" d="M816.657 714.67C778.304 671.156 662.035 668.876 608.695 673.175C609.775 676.913 608.695 686.745 595.738 696.166C579.542 707.941 598.977 711.306 623.596 721.399C648.214 731.493 611.935 697.287 636.553 689.437C661.172 681.586 636.553 701.773 655.341 702.895C674.129 704.016 682.551 688.876 700.691 689.437C718.831 689.998 816.657 698.969 812.77 753.362C808.883 807.754 700.691 790.371 672.833 785.885C644.975 781.399 662.467 772.988 636.553 765.698C610.639 758.409 578.894 761.212 623.596 785.885C668.298 810.558 752.519 808.315 775.842 803.829C799.165 799.343 864.598 769.063 816.657 714.67Z" stroke="black"/>
<path id="rib_03" d="M283.85 772.959C319.011 731.011 443.195 727.603 500.896 731.206C499.728 734.34 486.88 743.913 500.896 751.809C489.292 749.035 467.331 745.151 472.319 751.809C477.307 758.467 462.274 762.192 454.134 763.222C433.81 764.162 428.919 751.339 409.296 751.809C389.673 752.279 284.46 759.762 288.055 805.388C291.505 849.181 409.296 836.407 439.431 832.647C469.566 828.888 450.644 821.838 478.677 815.728C506.71 809.618 541.05 811.968 492.693 832.647C444.337 853.327 350.218 850.576 323.2 846.55C297.97 842.79 248 815.728 283.85 772.959Z" stroke="black"/>
<path id="rib_04" d="M837.545 772.959C799.378 734.648 681.977 727.603 625.644 731.206C626.785 734.34 639.328 743.913 625.644 751.809C636.973 749.035 658.414 745.151 653.544 751.809C648.674 758.467 663.351 762.192 671.298 763.222C691.14 764.162 695.915 751.339 715.073 751.809C734.23 752.279 836.949 759.762 833.44 805.388C830.071 849.181 715.073 836.407 685.652 832.647C656.231 828.888 674.705 821.838 647.337 815.728C619.968 809.618 586.443 811.968 633.653 832.647C680.863 853.327 772.75 850.576 799.128 846.55C823.759 842.79 880.153 815.728 837.545 772.959Z" stroke="black"/>
<path id="rib_05" d="M280.865 830.542C318.706 796.632 442.229 790.443 498.768 793.605C497.623 796.354 485.034 802.068 498.768 808.995C461.704 796.375 449.383 811.432 447.856 820.538C427.941 821.363 424.207 808.296 405.09 806.687C386.912 805.156 288 820.538 278.829 862.477C271.908 894.127 291.727 912.552 327 913.323C367.242 914.203 435.909 889.446 450.911 884.525C478.292 875.543 449.528 875.041 476.996 869.681C504.464 864.321 538.113 866.382 490.73 884.525C443.348 902.667 356 948.823 289.5 924.323C258.296 912.827 245.227 862.477 280.865 830.542Z" stroke="black"/>
<path id="rib_06" d="M271.915 898.376C314.702 855.501 442.086 842.305 502.46 846.544C501.238 850.229 487.794 857.892 502.46 867.18C462.882 850.258 449.726 870.447 448.095 882.657C426.829 883.763 422.842 866.242 402.428 864.085C383.017 862.033 273.552 881.122 267.602 938.892C263.559 978.154 284.798 1003.28 320.486 1010.74C371.547 1021.42 417.238 1006.82 457.319 974.784C468.494 965.851 476.168 951.021 481.925 942.266C496.591 919.963 536.12 929.76 493.877 968.454C422.079 1034.22 340.332 1044.64 288.628 1018.61C245.28 996.778 233.79 936.58 271.915 898.376Z" stroke="black"/>
<path id="rib_07" d="M267.828 968.073C310.453 925.116 447.627 897.764 506.981 894.743C505.763 898.436 492.371 906.113 506.981 915.419C467.553 898.465 451.888 934.876 450.263 947.109C429.079 948.217 418.183 935.878 397.846 933.716C378.508 931.66 269.458 950.786 263.531 1008.67C259.503 1048 280.661 1073.17 316.214 1080.65C367.082 1091.35 412.6 1076.72 452.529 1044.63C463.662 1035.68 471.307 1020.82 477.042 1012.05C491.652 989.701 531.032 999.516 488.949 1038.28C417.423 1104.18 335.986 1114.62 284.477 1088.53C241.294 1066.66 229.847 1006.35 267.828 968.073Z" stroke="black"/>
<path id="rib_08" d="M860.987 968.073C818.362 925.116 681.188 897.764 621.834 894.743C623.052 898.436 636.444 906.113 621.834 915.419C661.262 898.465 676.927 934.876 678.552 947.109C699.737 948.217 710.633 935.878 730.969 933.716C750.307 931.66 859.357 950.786 865.284 1008.67C869.312 1048 848.154 1073.17 812.601 1080.65C761.733 1091.35 716.215 1076.72 676.286 1044.63C665.153 1035.68 657.508 1020.82 651.773 1012.05C637.163 989.701 597.783 999.516 639.866 1038.28C711.392 1104.18 792.83 1114.62 844.338 1088.53C887.522 1066.66 898.968 1006.35 860.987 968.073Z" stroke="black"/>
<path id="rib_09" d="M266.965 1019.55C311.697 975.143 455.712 942.946 518 939.823C516.722 943.641 513.168 948.202 528.5 957.823C487.123 940.296 468 965.118 468 979.323C445.768 980.469 426.5 995.323 403.41 984.034C385.08 975.071 268.676 1001.68 262.456 1061.52C258.229 1102.19 280.433 1128.21 317.743 1135.94C371.126 1147 418.894 1131.88 460.796 1098.69C472.48 1089.44 480.502 1074.08 486.521 1065.01C501.853 1041.91 543.18 1052.06 499.016 1092.14C423.955 1160.26 338.492 1171.05 284.437 1144.08C239.12 1121.48 227.107 1059.12 266.965 1019.55Z" stroke="black"/>
<path id="rib_10" d="M861.535 1019.55C816.803 975.143 672.788 942.946 610.5 939.823C611.778 943.641 615.332 948.202 600 957.823C641.377 940.296 660.5 965.118 660.5 979.323C682.732 980.469 702 995.323 725.09 984.034C743.42 975.071 859.824 1001.68 866.044 1061.52C870.271 1102.19 848.067 1128.21 810.757 1135.94C757.374 1147 709.606 1131.88 667.704 1098.69C656.02 1089.44 647.998 1074.08 641.979 1065.01C626.647 1041.91 585.32 1052.06 629.484 1092.14C704.545 1160.26 790.008 1171.05 844.063 1144.08C889.38 1121.48 901.393 1059.12 861.535 1019.55Z" stroke="black"/>
<path id="rib_11" d="M264.965 1077.55C309.697 1033.14 451.212 1006.45 513.5 1003.32C512.222 1007.14 504.668 1016.7 520 1026.32C478.623 1008.8 466 1023.12 466 1037.32C443.768 1038.47 424.5 1053.32 401.41 1042.03C383.08 1033.07 266.676 1059.68 260.456 1119.52C256.229 1160.19 278.433 1186.21 315.743 1193.94C369.126 1205 416.894 1189.88 458.796 1156.69C470.48 1147.44 478.502 1132.08 484.521 1123.01C499.853 1099.91 541.18 1110.06 497.016 1150.14C421.955 1218.26 336.492 1229.05 282.437 1202.08C237.12 1179.48 225.107 1117.12 264.965 1077.55Z" stroke="black"/>
<path id="rib_12" d="M864.035 1078.05C819.303 1033.64 677.788 1006.95 615.5 1003.82C616.778 1007.64 624.332 1017.2 609 1026.82C650.377 1009.3 663 1023.62 663 1037.82C685.232 1038.97 704.5 1053.82 727.59 1042.53C745.92 1033.57 862.324 1060.18 868.544 1120.02C872.771 1160.69 850.567 1186.71 813.257 1194.44C759.874 1205.5 712.106 1190.38 670.204 1157.19C658.52 1147.94 650.498 1132.58 644.479 1123.51C629.147 1100.41 587.82 1110.56 631.984 1150.64C707.045 1218.76 792.508 1229.55 846.563 1202.58C891.88 1179.98 903.893 1117.62 864.035 1078.05Z" stroke="black"/>
<path id="rib_13" d="M263.814 1125.27C310.119 1079.49 468.022 1070.04 532.5 1066.82C531.177 1070.76 513.629 1084.9 529.5 1094.82C486.669 1076.75 471.917 1069.15 471.917 1083.8C448.903 1084.98 439.902 1114.46 416 1102.82C397.025 1093.58 265.586 1106.85 259.147 1168.54C254.771 1210.47 277.756 1237.29 316.378 1245.26C371.637 1256.67 421.084 1241.08 464.46 1206.87C476.554 1197.33 484.858 1181.49 491.089 1172.14C506.96 1148.32 549.739 1158.79 504.024 1200.11C426.323 1270.34 337.856 1281.46 281.901 1253.66C234.99 1230.35 222.555 1166.07 263.814 1125.27Z" stroke="black"/>
<path id="rib_14" d="M865.686 1125.27C819.381 1079.49 661.478 1070.04 597 1066.82C598.323 1070.76 615.871 1084.9 600 1094.82C642.831 1076.75 657.583 1069.15 657.583 1083.8C680.597 1084.98 689.598 1114.46 713.5 1102.82C732.475 1093.58 863.914 1106.85 870.353 1168.54C874.729 1210.47 851.744 1237.29 813.122 1245.26C757.863 1256.67 708.416 1241.08 665.04 1206.87C652.946 1197.33 644.642 1181.49 638.411 1172.14C622.54 1148.32 579.761 1158.79 625.476 1200.11C703.177 1270.34 791.644 1281.46 847.599 1253.66C894.51 1230.35 906.945 1166.07 865.686 1125.27Z" stroke="black"/>
<path id="rib_15" d="M265.235 1184.5C304.769 1135.23 467.451 1121.15 529.972 1109.91C529.167 1113.81 513.789 1129.44 530.5 1136.82C486.475 1125.14 465.693 1124.45 467.5 1138.32C445.189 1142.37 434.26 1157.32 409.5 1149.32C389.844 1142.98 264.689 1166.81 266.02 1226.09C266.924 1266.38 292.664 1288.88 331.335 1291.52C386.664 1295.3 432.992 1274.25 471.096 1236.32C481.72 1225.74 487.869 1209.68 492.795 1200.03C505.343 1175.44 548.379 1179.92 508.868 1224.88C441.715 1301.31 356.761 1323.1 298.728 1303.86C250.076 1287.74 230.008 1228.4 265.235 1184.5Z" stroke="black"/>
<path id="rib_16" d="M861.456 1184.5C821.922 1135.23 659.24 1121.15 596.719 1109.91C597.524 1113.81 612.902 1129.44 596.191 1136.82C640.216 1125.14 660.998 1124.45 659.191 1138.32C681.502 1142.37 692.431 1157.32 717.191 1149.32C736.847 1142.98 862.002 1166.81 860.671 1226.09C859.767 1266.38 834.027 1288.88 795.356 1291.52C740.027 1295.3 693.699 1274.25 655.595 1236.32C644.971 1225.74 638.822 1209.68 633.896 1200.03C621.348 1175.44 578.312 1179.92 617.823 1224.88C684.977 1301.31 769.93 1323.1 827.963 1303.86C876.615 1287.74 896.683 1228.4 861.456 1184.5Z" stroke="black"/>
</g>
<g id="spine">
<path id="spine_01" d="M540.678 570.78C547.669 562.746 556.757 572.789 561.651 577.475C566.545 572.119 574.198 561.244 582.624 570.78C590.313 579.483 599.401 587.049 586.119 590.865C572.837 594.681 569.341 623 561.651 623C556.058 623 549.233 595.892 536.484 590.865C524.599 586.178 534.349 578.054 540.678 570.78Z" stroke="black"/>
<path id="spine_01_2" d="M540.678 523.78C547.669 515.746 556.757 525.789 561.651 530.475C566.545 525.119 574.198 514.244 582.624 523.78C590.313 532.483 599.401 540.049 586.119 543.865C572.837 547.681 567.5 576 561.651 576C556.058 576 549.233 548.892 536.484 543.865C524.599 539.178 534.349 531.054 540.678 523.78Z" stroke="black"/>
<path id="spine_02" d="M541.678 617.596C548.669 609.534 557.046 619.85 561.94 624.552C566.821 620.087 575.198 608.026 583.624 617.596C591.313 626.33 600.401 633.922 587.119 637.752C573.837 641.581 570.19 671.323 562.5 671.323C556.907 671.323 550.233 642.797 537.484 637.752C525.599 633.049 535.349 624.895 541.678 617.596Z" stroke="black"/>
<path id="spine_03" d="M543.593 666.65C550.505 658.662 558.097 668.412 562.935 673.071C567.762 668.647 575.34 657.168 583.671 666.65L583.714 666.698C591.302 675.335 598.853 683.928 585.745 687.715C572.612 691.509 569 719 562.935 719C557.405 719 553.422 692.714 540.816 687.715C529.065 683.056 537.335 673.881 543.593 666.65Z" stroke="black"/>
<path id="spine_04" d="M543.593 713.65C550.505 705.662 558.097 715.412 562.935 720.071C567.762 715.647 575.34 704.168 583.671 713.65L583.714 713.698C591.302 722.335 598.853 730.928 585.745 734.715C572.612 738.509 569 767.323 562.935 767.323C557.405 767.323 553.422 739.714 540.816 734.715C529.065 730.056 537.335 720.881 543.593 713.65Z" stroke="black"/>
<path id="spine_05" d="M543.593 762.651C550.505 754.661 558.097 764.413 562.935 769.074C567.762 764.649 575.34 753.167 583.671 762.651L583.714 762.7C591.302 771.339 598.853 779.934 585.745 783.722C572.612 787.517 568.935 813.323 562.935 813.323C556.554 813.323 553.422 788.722 540.816 783.722C529.065 779.061 537.335 769.884 543.593 762.651Z" stroke="black"/>
<path id="spine_06" d="M539.014 807.462C547.039 797.483 556.9 810.38 563.159 815.133C568.8 809.711 577.155 795.954 587.317 807.462C596.808 818.21 612.339 837.861 591.631 832.627C570.924 827.393 569.903 870.823 563 870.823C556.097 870.823 555.393 827.752 535.548 832.627C513.978 837.925 530.371 818.21 539.014 807.462Z" stroke="black"/>
<path id="spine_07" d="M539.014 864.462C547.039 854.483 556.9 867.38 563.159 872.133C568.8 866.711 577.155 852.954 587.317 864.462C596.808 875.21 612.339 894.861 591.631 889.627C570.924 884.393 570.061 927 563.159 927C556.256 927 555.393 884.752 535.548 889.627C513.978 894.925 530.371 875.21 539.014 864.462Z" stroke="black"/>
<path id="spine_08" d="M539.014 920.462C547.039 910.483 556.9 923.38 563.159 928.133C568.8 922.711 577.155 908.954 587.317 920.462C596.808 931.21 612.339 950.861 591.631 945.627C570.924 940.393 570.061 983 563.159 983C556.256 983 555.393 940.752 535.548 945.627C513.978 950.925 530.371 931.21 539.014 920.462Z" stroke="black"/>
<path id="spine_09" d="M542.867 977.76C549.881 969.568 558.286 979.479 563.196 984.258C568.093 979.72 575.082 968.035 583.536 977.76L583.579 977.81C591.279 986.669 598.941 995.482 585.64 999.367C572.314 1003.26 568.807 1030 563.196 1030C556.709 1030 554.779 1004.06 540.05 999.367C527.794 995.464 536.517 985.178 542.867 977.76Z" stroke="black"/>
<path id="spine_10" d="M542.867 1026.22C549.881 1019.2 558.286 1027.7 563.196 1031.79C568.093 1027.9 575.082 1017.89 583.536 1026.22L583.579 1026.27C591.279 1033.86 598.941 1041.41 585.64 1044.74C572.314 1048.08 568.807 1071 563.196 1071C556.709 1071 554.779 1048.76 540.05 1044.74C527.794 1041.4 536.517 1032.58 542.867 1026.22Z" stroke="black"/>
<path id="spine_11" d="M542.867 1068.16C549.881 1061.28 558.286 1069.6 563.196 1073.61C568.093 1069.8 575.082 1059.99 583.536 1068.16L583.579 1068.2C591.279 1075.63 598.941 1083.03 585.64 1086.29C572.314 1089.56 568.807 1112 563.196 1112C556.709 1112 554.779 1090.23 540.05 1086.29C527.794 1083.01 536.517 1074.38 542.867 1068.16Z" stroke="black"/>
<path id="spine_12" d="M542.867 1108.29C549.881 1101.12 558.286 1109.79 563.196 1113.98C568.093 1110.01 575.082 1099.78 583.536 1108.29L583.579 1108.33C591.279 1116.09 598.941 1123.8 585.64 1127.2C572.314 1130.6 568.807 1154 563.196 1154C556.709 1154 554.779 1131.3 540.05 1127.2C527.794 1123.78 536.517 1114.78 542.867 1108.29Z" stroke="black"/>
<path id="spine_13" d="M542.867 1150.22C549.881 1143.2 558.286 1151.7 563.196 1155.79C568.093 1151.9 575.082 1141.89 583.536 1150.22L583.579 1150.27C591.279 1157.86 598.941 1165.41 585.64 1168.74C572.314 1172.08 568.807 1195 563.196 1195C556.709 1195 554.779 1172.76 540.05 1168.74C527.794 1165.4 536.517 1156.58 542.867 1150.22Z" stroke="black"/>
<path id="spine_14" d="M539.062 1188.44C547.114 1178.51 557.009 1191.35 563.289 1196.08C568.949 1190.68 577.333 1176.99 587.53 1188.44C597.053 1199.14 610.799 1218.7 590.021 1213.49C569.243 1208.28 569.926 1239.82 563 1239.82C556.074 1239.82 555.497 1208.64 535.585 1213.49C513.941 1218.76 530.39 1199.14 539.062 1188.44Z" stroke="black"/>
<path id="spine_15" d="M539.014 1233.36C547.039 1223.61 556.9 1235.54 563.159 1240.85C568.8 1235.56 577.155 1222.12 587.317 1233.36C596.808 1243.86 612.339 1263.06 591.631 1257.94C570.924 1252.83 570.061 1282 563.159 1282C556.256 1282 555.393 1253.18 535.548 1257.94C513.978 1263.12 530.371 1243.86 539.014 1233.36Z" stroke="black"/>
<path id="spine_16" d="M539.014 1276.52C547.039 1266.41 556.9 1278.79 563.159 1284.3C568.8 1278.8 577.155 1264.86 587.317 1276.52C596.808 1287.42 612.339 1307.34 591.631 1302.04C570.924 1296.73 570.061 1327 563.159 1327C556.256 1327 555.393 1297.09 535.548 1302.04C513.978 1307.41 530.371 1287.42 539.014 1276.52Z" stroke="black"/>
<path id="spine_17" d="M539.014 1321.44C547.039 1311.51 556.9 1323.67 563.159 1329.08C568.8 1323.68 577.155 1309.99 587.317 1321.44C596.808 1332.14 612.339 1351.7 591.631 1346.49C570.924 1341.28 570.061 1363 563.159 1363C556.256 1363 555.393 1341.64 535.548 1346.49C513.978 1351.76 530.371 1332.14 539.014 1321.44Z" stroke="black"/>
<path id="spine_18" d="M542.867 1358.25C549.881 1351.17 558.286 1359.74 563.196 1363.87C568.093 1359.95 575.082 1349.84 583.536 1358.25L583.579 1358.29C591.279 1365.95 598.941 1373.57 585.64 1376.93C572.314 1380.29 568.807 1394 563.196 1394C556.709 1394 554.779 1380.98 540.05 1376.93C527.794 1373.56 536.517 1364.66 542.867 1358.25Z" stroke="black"/>
<path id="spine_19" d="M539.014 1388.44C547.039 1378.51 555.5 1390.82 563.159 1395.32C570 1391.32 577.155 1376.99 587.317 1388.44C596.808 1399.14 612.339 1418.7 591.631 1413.49C570.924 1408.28 570.659 1424.32 563 1424.32C555.341 1424.32 555.393 1408.64 535.548 1413.49C513.978 1418.76 530.371 1399.14 539.014 1388.44Z" stroke="black"/>
<path id="spine_20" d="M539.014 1419.44C547.189 1409.32 556 1421.32 563 1425.82C569.5 1422.32 577.155 1407.99 587.317 1419.44C596.808 1430.14 612.339 1449.7 591.631 1444.49C570.924 1439.28 570.061 1455.32 563.159 1455.32C556.256 1455.32 555.393 1439.64 535.548 1444.49C513.978 1449.76 530.371 1430.14 539.014 1419.44Z" stroke="black"/>
<path id="spine_21" d="M539.014 1450.17C547.039 1440.24 553.5 1449.32 563.159 1457.06C569.5 1452.32 577.155 1438.72 587.317 1450.17C596.808 1460.87 612.339 1480.43 591.631 1475.22C570.924 1470.01 570.659 1486.06 563 1486.06C555.341 1486.06 555.393 1470.37 535.548 1475.22C513.978 1480.5 530.371 1460.87 539.014 1450.17Z" stroke="black"/>
<path id="spine_22" d="M539.014 1481.17C547.039 1471.24 553.5 1480.32 563.159 1488.06C569.5 1483.32 577.155 1469.72 587.317 1481.17C596.808 1491.87 612.339 1511.43 591.631 1506.22C570.924 1501.01 570.659 1517.06 563 1517.06C555.341 1517.06 555.393 1501.37 535.548 1506.22C513.978 1511.5 530.371 1491.87 539.014 1481.17Z" stroke="black"/>
<path id="spine_23" d="M539.014 1512.17C547.039 1502.24 553.5 1511.32 563.159 1519.06C569.5 1514.32 577.155 1500.72 587.317 1512.17C596.808 1522.87 612.339 1542.43 591.631 1537.22C570.924 1532.01 570.659 1548.06 563 1548.06C555.341 1548.06 555.393 1532.37 535.548 1537.22C513.978 1542.5 530.371 1522.87 539.014 1512.17Z" stroke="black"/>
<path id="spine_24" d="M539.014 1543.17C547.039 1533.24 553.5 1542.32 563.159 1550.06C569.5 1545.32 577.156 1531.72 587.317 1543.17C596.808 1553.87 610.707 1575.53 590 1570.32C569.293 1565.11 570.659 1579.06 563 1579.06C555.341 1579.06 555.345 1565.47 535.5 1570.32C513.93 1575.6 530.371 1553.87 539.014 1543.17Z" stroke="black"/>
<path id="spine_25" d="M532.053 1573.26C550.5 1562.32 557 1580.08 563.096 1580.08C569 1580.08 575 1561.82 594.157 1573.26C608.039 1581.54 626.328 1603.25 599.704 1598.09C573.08 1592.92 572.739 1608.82 562.892 1608.82C553.045 1608.82 553.112 1593.28 527.597 1598.09C499.864 1603.31 518.84 1581.09 532.053 1573.26Z" stroke="black"/>
<path id="spine_26" d="M532.053 1603.26C542.37 1593.41 557 1610.08 563.096 1610.08C569 1610.08 581.092 1591.9 594.157 1603.26C606.359 1613.86 626.327 1633.25 599.704 1628.09C573.08 1622.92 572.739 1638.82 562.892 1638.82C553.045 1638.82 553.112 1623.28 527.597 1628.09C499.863 1633.31 520.941 1613.86 532.053 1603.26Z" stroke="black"/>
<path id="spine_27" d="M532.053 1633.26C542.37 1623.41 557 1640.08 563.096 1640.08C569 1640.08 581.092 1621.9 594.157 1633.26C606.359 1643.86 626.327 1663.25 599.704 1658.09C573.08 1652.92 572.739 1668.82 562.892 1668.82C553.045 1668.82 553.112 1653.28 527.597 1658.09C499.863 1663.31 520.941 1643.86 532.053 1633.26Z" stroke="black"/>
<path id="spine_28" d="M541.546 1665.24C548.737 1658.47 558.933 1669.92 563.182 1669.92C567.297 1669.92 575.724 1657.44 584.83 1665.24C593.335 1672.52 607.252 1685.84 588.696 1682.3C570.14 1678.75 569.902 1689.67 563.039 1689.67C556.176 1689.67 556.223 1678.99 538.44 1682.3C519.111 1685.89 533.801 1672.52 541.546 1665.24Z" stroke="black"/>
<path id="spine_29" d="M545.464 1685.58C551.404 1678.31 559.827 1690.61 563.337 1690.61C566.736 1690.61 573.698 1677.2 581.221 1685.58C588.246 1693.4 599.743 1707.71 584.414 1703.9C569.085 1700.09 568.889 1711.82 563.22 1711.82C557.55 1711.82 557.588 1700.35 542.898 1703.9C526.93 1707.76 539.066 1693.4 545.464 1685.58Z" stroke="black"/>
<path id="spine_30" d="M548.628 1708.34C553.526 1699.07 559 1712.32 563.269 1712.82C567.968 1713.37 571.909 1697.65 578.112 1708.34C583.905 1718.32 593.385 1736.57 580.745 1731.71C568.105 1726.85 567.944 1741.82 563.269 1741.82C558.594 1741.82 558.626 1727.18 546.513 1731.71C533.346 1736.63 543.353 1718.32 548.628 1708.34Z" stroke="black"/>
<path id="spine_30_2" d="M547.5 1732.32C556.372 1727.59 559 1741.82 563.269 1742.32C567.968 1742.87 568.888 1728.09 578.5 1731.32C589.441 1735 590.5 1757.04 580.5 1755.93C570.5 1754.82 567.944 1770.32 563.269 1770.32C558.594 1770.32 555 1754.82 546.513 1755.93C535.891 1757.32 537.537 1737.64 547.5 1732.32Z" stroke="black"/>
<path id="spine_extra_01" d="M514.433 739.05C521.25 736.431 526.149 739.322 527.747 741.095C537.332 749.687 533.604 752.96 530.409 754.596C527.214 756.233 517.096 752.551 511.771 749.687C506.445 746.823 505.913 742.323 514.433 739.05Z" stroke="black"/>
<path id="spine_extra_02" d="M614.324 739.05C607.508 736.431 602.609 739.322 601.011 741.095C591.426 749.687 595.153 752.96 598.349 754.596C601.544 756.233 611.662 752.551 616.987 749.687C622.312 746.823 622.845 742.323 614.324 739.05Z" stroke="black"/>
<path id="spine_extra_03" d="M510.442 810.527C518.307 813.761 523.96 810.19 525.803 808C536.863 797.386 532.562 793.343 528.875 791.322C525.189 789.3 513.514 793.849 507.369 797.386C501.225 800.924 500.61 806.483 510.442 810.527Z" stroke="black"/>
<path id="spine_extra_04" d="M617.568 810.527C609.965 813.761 604.501 810.19 602.719 808C592.027 797.386 596.185 793.343 599.749 791.322C603.313 789.3 614.598 793.849 620.538 797.386C626.478 800.924 627.072 806.483 617.568 810.527Z" stroke="black"/>
<path id="spine_extra_05" d="M515.433 862.774C522.25 865.392 527.149 862.501 528.747 860.728C538.332 852.136 534.604 848.863 531.409 847.227C528.214 845.59 518.096 849.272 512.771 852.136C507.445 855 506.913 859.501 515.433 862.774Z" stroke="black"/>
<path id="spine_extra_06" d="M610.324 862.774C603.508 865.392 598.609 862.501 597.011 860.728C587.426 852.136 591.153 848.863 594.349 847.227C597.544 845.59 607.662 849.272 612.987 852.136C618.312 855 618.845 859.501 610.324 862.774Z" stroke="black"/>
<path id="spine_extra_07" d="M514.433 900.05C521.25 897.431 526.149 900.322 527.747 902.095C537.332 910.687 533.604 913.96 530.409 915.596C527.214 917.233 517.096 913.551 511.771 910.687C506.445 907.823 505.913 903.323 514.433 900.05Z" stroke="black"/>
<path id="spine_extra_08" d="M614.324 900.05C607.508 897.431 602.609 900.322 601.011 902.095C591.426 910.687 595.153 913.96 598.349 915.596C601.544 917.233 611.662 913.551 616.987 910.687C622.312 907.823 622.845 903.323 614.324 900.05Z" stroke="black"/>
<path id="spine_extra_09" d="M525.425 1006.8C531.193 1004.8 535.338 1007.01 536.69 1008.37C544.801 1014.94 541.647 1017.44 538.943 1018.69C536.239 1019.94 527.678 1017.13 523.172 1014.94C518.666 1012.75 518.215 1009.31 525.425 1006.8Z" stroke="black"/>
<path id="spine_extra_10" d="M600.333 1006.8C594.565 1004.8 590.42 1007.01 589.068 1008.37C580.957 1014.94 584.111 1017.44 586.815 1018.69C589.518 1019.94 598.08 1017.13 602.586 1014.94C607.092 1012.75 607.542 1009.31 600.333 1006.8Z" stroke="black"/>
<path id="spine_extra_11" d="M519.921 1233.02C525.164 1235.02 528.933 1232.81 530.162 1231.46C537.535 1224.89 534.668 1222.38 532.21 1221.13C529.752 1219.88 521.969 1222.7 517.873 1224.89C513.776 1227.08 513.367 1230.52 519.921 1233.02Z" stroke="black"/>
<path id="spine_extra_12" d="M605.837 1233.02C600.594 1235.02 596.825 1232.81 595.596 1231.46C588.223 1224.89 591.09 1222.38 593.548 1221.13C596.006 1219.88 603.789 1222.7 607.885 1224.89C611.982 1227.08 612.391 1230.52 605.837 1233.02Z" stroke="black"/>
<path id="spine_extra_13" d="M515.425 1281.77C521.193 1284.39 525.338 1281.5 526.69 1279.73C534.801 1271.14 531.647 1267.86 528.943 1266.23C526.239 1264.59 517.678 1268.27 513.172 1271.14C508.666 1274 508.215 1278.5 515.425 1281.77Z" stroke="black"/>
<path id="spine_extra_14" d="M610.333 1281.77C604.565 1284.39 600.42 1281.5 599.068 1279.73C590.957 1271.14 594.111 1267.86 596.815 1266.23C599.518 1264.59 608.08 1268.27 612.586 1271.14C617.092 1274 617.542 1278.5 610.333 1281.77Z" stroke="black"/>
<path id="spine_extra_15" d="M515.425 1325.77C521.193 1328.39 525.338 1325.5 526.69 1323.73C534.801 1315.14 531.647 1311.86 528.943 1310.23C526.239 1308.59 517.678 1312.27 513.172 1315.14C508.666 1318 508.215 1322.5 515.425 1325.77Z" stroke="black"/>
<path id="spine_extra_16" d="M610.333 1325.77C604.565 1328.39 600.42 1325.5 599.068 1323.73C590.957 1315.14 594.111 1311.86 596.815 1310.23C599.518 1308.59 608.08 1312.27 612.586 1315.14C617.092 1318 617.542 1322.5 610.333 1325.77Z" stroke="black"/>
<path id="spine_extra_17" d="M515.425 1395.77C521.193 1398.39 525.338 1395.5 526.69 1393.73C534.801 1385.14 531.647 1381.86 528.943 1380.23C526.239 1378.59 517.678 1382.27 513.172 1385.14C508.666 1388 508.215 1392.5 515.425 1395.77Z" stroke="black"/>
<path id="spine_extra_18" d="M610.333 1395.77C604.565 1398.39 600.42 1395.5 599.068 1393.73C590.957 1385.14 594.111 1381.86 596.815 1380.23C599.518 1378.59 608.08 1382.27 612.586 1385.14C617.092 1388 617.542 1392.5 610.333 1395.77Z" stroke="black"/>
<path id="spine_extra_19" d="M509.546 1435.77C515.314 1438.39 519.459 1435.5 520.811 1433.73C528.922 1425.14 525.768 1421.86 523.064 1420.23C520.361 1418.59 511.799 1422.27 507.293 1425.14C502.787 1428 502.336 1432.5 509.546 1435.77Z" stroke="black"/>
<path id="spine_extra_20" d="M616.454 1435.77C610.686 1438.39 606.541 1435.5 605.189 1433.73C597.078 1425.14 600.232 1421.86 602.936 1420.23C605.639 1418.59 614.201 1422.27 618.707 1425.14C623.213 1428 623.664 1432.5 616.454 1435.77Z" stroke="black"/>
<path id="spine_extra_21" d="M505.798 1474.53C511.828 1477.76 516.162 1474.19 517.575 1472C526.055 1461.39 522.757 1457.34 519.931 1455.32C517.104 1453.3 508.154 1457.85 503.443 1461.39C498.732 1464.92 498.261 1470.48 505.798 1474.53Z" stroke="black"/>
<path id="spine_extra_22" d="M620.202 1474.53C614.172 1477.76 609.838 1474.19 608.425 1472C599.945 1461.39 603.243 1457.34 606.069 1455.32C608.896 1453.3 617.846 1457.85 622.557 1461.39C627.268 1464.92 627.739 1470.48 620.202 1474.53Z" stroke="black"/>
</g>
<g id="pelvis">
<path id="pelvis_01" d="M522 1551.32C517.5 1555.82 517 1561.82 512.5 1580.82C509 1583.16 501.4 1589.72 499 1597.32C496 1606.82 518.5 1613.82 506.5 1611.82C496.9 1610.22 490.5 1620.99 490 1624.82C485.5 1640.32 499.7 1642.42 478.5 1676.82C459.087 1708.32 458 1661.32 433 1667.82C408 1674.32 411 1719.82 379 1719.32C347 1718.82 364 1707.82 341.5 1656.32C319 1604.82 272.5 1613.82 259.5 1587.82C246.5 1561.82 272.5 1534.82 300 1500.82C327.5 1466.82 322.5 1445.82 357 1423.82C391.5 1401.82 418.5 1437.32 433 1454.82C447.5 1472.32 507.5 1504.82 517 1512.82C526.5 1520.82 517.5 1525.32 512.5 1539.82C507.5 1554.32 526.5 1546.82 522 1551.32Z" stroke="black"/>
<path id="pelvis_02" d="M603.696 1551.3C608.196 1555.8 608.696 1561.8 613.196 1580.8C616.696 1583.13 624.296 1589.7 626.696 1597.3C629.696 1606.8 607.196 1613.8 619.196 1611.8C628.796 1610.2 635.196 1620.97 635.696 1624.8C640.196 1640.3 625.996 1642.4 647.196 1676.8C666.608 1708.3 667.696 1661.3 692.696 1667.8C717.696 1674.3 714.696 1719.8 746.696 1719.3C778.696 1718.8 761.696 1707.8 784.196 1656.3C806.696 1604.8 853.196 1613.8 866.196 1587.8C879.196 1561.8 853.196 1534.8 825.696 1500.8C798.196 1466.8 803.196 1445.8 768.696 1423.8C734.196 1401.8 707.196 1437.3 692.696 1454.8C678.196 1472.3 618.196 1504.8 608.696 1512.8C599.196 1520.8 608.196 1525.3 613.196 1539.8C618.196 1554.3 599.196 1546.8 603.696 1551.3Z" stroke="black"/>
<path id="pelvis_03" d="M455.5 1679.32C436.5 1695.82 442 1712.32 470.5 1711.82C499 1711.32 500.5 1734.32 518.5 1727.82C532.9 1722.62 542.667 1718.32 546.5 1712.32M480.5 1672.82C489.833 1686.49 516.5 1717.32 537 1696.82" stroke="black"/>
<path id="pelvis_04" d="M670.5 1678.82C689.5 1695.32 685.5 1712.32 657 1711.82C628.5 1711.32 627 1734.32 609 1727.82C594.6 1722.62 584.833 1719.32 581 1713.32M645.5 1674.32C636.167 1687.99 611 1718.32 590.5 1697.82" stroke="black"/>
<path id="pelvis_05" d="M488.5 1656.32C494.167 1650.66 508.2 1640.72 519 1646.32M490.5 1641.82C496.167 1639.32 510.9 1635.52 524.5 1640.32" stroke="black"/>
<path id="pelvis_06" d="M637 1656.32C631.333 1650.66 618.3 1640.22 607.5 1645.82M635 1641.82C629.333 1639.32 615.1 1635.52 601.5 1640.32" stroke="black"/>
</g>
<g id="arms">
<path id="arm_left_06" d="M93.9998 1209.82C92.8332 1211.32 90.4 1213.22 90 1216.82C89.5 1221.32 91.9998 1231.82 93.9998 1246.32C95.9998 1260.82 93 1265.82 89.5 1299.32C86 1332.82 56.5 1571.82 58 1607.32C59.5 1642.82 46.5 1628.32 46.5 1646.32C46.5 1664.32 58 1667.32 69 1656.82C80 1646.32 70.9793 1633.5 85.5 1635.82C98 1637.82 114 1619.82 103.5 1605.32C87.4458 1583.15 80 1601.82 80 1556.32C80 1510.82 108.5 1265.82 113 1251.32C117.5 1236.82 134 1230.82 136 1221.82C137.6 1214.62 136.667 1206.82 136 1203.82" stroke="black"/>
<path id="arm_left_05" d="M92 1594.32C96 1591.12 98.3333 1581.66 99 1577.32C104.667 1538.49 116.012 1452.13 119.5 1407.32C126 1323.82 128.5 1245.32 127 1240.82C126.667 1239.66 125.4 1237.22 123 1236.82M99 1631.32C99.1667 1632.49 100.5 1636.32 104.5 1638.32C109.5 1640.82 124.5 1647.82 126 1635.82C127.5 1623.82 120 1629.82 119 1609.82C117.8 1597.02 117.056 1585.82 119 1568.32C120 1559.32 133.5 1440.82 136 1407.32C142.53 1319.82 141 1252.32 144.5 1240.82C148 1229.32 154.294 1231.96 159 1226.82C164.5 1220.82 161 1212.82 159 1208.82" stroke="black"/>
<path id="arm_left_04" d="M92 1193.32C89 1196.82 88.8999 1201.22 90.4999 1204.82C92.4999 1209.32 96.7063 1214.32 107.5 1214.32C117.5 1214.32 120 1210.82 125.5 1206.32C131 1201.82 139 1203.32 143 1204.82C147 1206.32 154.5 1211.82 162.5 1206.32C168.9 1201.92 167.5 1195.49 166 1192.82" stroke="black"/>
<path id="arm_left_03" d="M187.577 950.203C195.019 894.923 203.528 802.283 211.664 777.511C219.906 752.419 227.727 759.42 245.215 748.159C256.864 740.657 249.579 716.913 248.331 711.915C243.172 704.3 230.077 697.409 213.514 708.057C195.52 719.624 187.489 693.932 173.474 697.015C159.719 700.04 150.299 708.114 152.058 734.95C153.714 760.235 164.252 746.164 169.613 756.033C172.45 751.594 180.26 743.803 188.803 748.159C199.482 753.603 193.697 800.323 192.807 806.997C191.918 813.671 189.248 814.561 187.023 814.116C184.798 813.671 183.019 810.557 182.574 799.878C182.129 789.199 186.896 747.374 172.276 766.952C173.28 777.112 172.759 794.249 169.613 823.326C159.068 920.793 133.408 1112.53 116.914 1139.41C100.421 1166.29 92.1723 1158.93 90.2528 1177.65C88.3332 1196.37 97.3765 1207.71 112.788 1201.87C128.2 1196.02 129.311 1180.81 144.566 1194.96C159.821 1209.12 174.625 1185.1 169.633 1173.29C164.641 1161.48 154.11 1152.12 159.38 1121.86C163.596 1097.65 170.367 1053.57 175.62 1025.11" stroke="black"/>
<path id="arm_left_02" d="M176.756 667.662C174.64 659.076 219.95 644.11 242.869 637.701C258.296 634.57 259.177 640.384 258.737 646.197C258.296 652.011 250.362 652.011 244.192 653.352C238.021 654.694 233.613 656.93 231.41 667.662C229.206 678.395 255.211 681.973 263.585 687.786C271.959 693.6 261.381 701.649 255.211 700.755C249.04 699.86 238.462 690.916 231.41 690.916C224.358 690.916 220.832 694.047 208.931 697.624C197.031 701.202 198.794 691.811 188.656 684.656C178.519 677.501 179.401 678.395 176.756 667.662Z" stroke="black"/>
<path id="arm_left_01" d="M237 639.323C235.5 636.656 231.2 630.923 226 629.323C219.5 627.323 215 631.823 214 635.323C213.379 637.495 213.722 641.401 215.744 646.323M246 653.323C247 654.49 250.3 657.023 255.5 657.823C262 658.823 266 655.823 267.5 653.323C269 650.823 271 646.823 267.5 639.323C264.7 633.323 267.667 630.156 269.5 629.323C276.3 624.523 285.333 631.323 289 635.323C298.167 645.323 319.3 647.423 338.5 641.823C362.5 634.823 452 629.323 475.5 623.323C499 617.323 482.5 590.323 496 591.323C509.5 592.323 494.5 605.823 514.5 609.323C534.5 612.823 537 603.323 537 609.323C537 614.123 527.333 620.656 522.5 623.323C511.833 631.156 481.6 646.523 446 645.323C401.5 643.823 306.5 671.323 289 676.823C275 681.223 252.833 674.323 243 671.323C240.328 670.461 236.169 668.512 232 665.78" stroke="black"/>
<path id="arm_right_06" d="M1032.27 1209.82C1033.43 1211.32 1035.87 1213.22 1036.27 1216.82C1036.77 1221.32 1034.27 1231.82 1032.27 1246.32C1030.27 1260.82 1033.27 1265.82 1036.77 1299.32C1037.89 1310.06 1041.68 1341.9 1046.27 1381.39C1046.68 1385.2 1045.8 1392.32 1039 1390.32C1032.2 1388.32 1029.94 1380.16 1029.66 1376.32C1022.53 1313.75 1015.34 1258.01 1013.27 1251.32C1008.77 1236.82 992.267 1230.82 990.267 1221.82C988.667 1214.62 989.601 1206.82 990.267 1203.82M1068.27 1607.32C1066.77 1642.82 1079.77 1628.32 1079.77 1646.32C1079.77 1664.32 1068.27 1667.32 1057.27 1656.82C1046.27 1646.32 1055.29 1633.5 1040.77 1635.82C1028.27 1637.82 1012.27 1619.82 1022.77 1605.32C1038.82 1583.15 1046.27 1601.82 1046.27 1556.32C1046.27 1546.57 1044.96 1527.66 1042.86 1503.82C1042.74 1500.66 1042.2 1492.82 1041 1486.82C1039.5 1479.32 1040.72 1479.32 1042.86 1478.82C1045 1478.32 1047 1480.82 1049.5 1492.32C1052 1503.82 1054.63 1500.46 1058 1503.82C1059.25 1505.07 1060 1505.32 1060.59 1509.82C1065.37 1555.88 1068.8 1594.62 1068.27 1607.32Z" stroke="black"/>
<path id="arm_right_05" d="M1034.27 1594.32C1030.27 1591.12 1027.93 1581.66 1027.27 1577.32C1024.49 1558.29 1020.35 1527.83 1016.43 1496.44C1012.94 1469.05 1021.77 1437.32 1013.5 1436.32C1005.23 1435.32 1011 1459.32 1003.27 1470.82C997.081 1480.02 998.023 1491.73 999.267 1496.44C1003.1 1531.6 1006.76 1563.8 1007.27 1568.32C1009.21 1585.82 1008.47 1597.02 1007.27 1609.82C1006.27 1629.82 998.767 1623.82 1000.27 1635.82C1001.77 1647.82 1016.77 1640.82 1021.77 1638.32C1025.77 1636.32 1027.1 1633.49 1027.27 1632.32M967.267 1208.82C965.267 1212.82 961.767 1220.82 967.267 1226.82C971.973 1231.96 978.267 1229.32 981.767 1240.82C983.922 1247.9 984.17 1276.2 985.566 1317.32C985.74 1322.46 985.933 1327.8 986.149 1333.32C986.01 1336.82 987.186 1344.02 993 1344.82C1000.27 1345.82 1002.21 1339.32 1001.88 1333.32C1001.58 1327.83 1001.31 1322.49 1001.05 1317.32C998.938 1274.48 998.343 1243.6 999.267 1240.82C999.6 1239.66 1000.87 1237.22 1003.27 1236.82" stroke="black"/>
<path id="arm_right_04" d="M1034.27 1193.32C1037.27 1196.82 1037.37 1201.22 1035.77 1204.82C1033.77 1209.32 1029.56 1214.32 1018.77 1214.32C1008.77 1214.32 1006.27 1210.82 1000.77 1206.32C995.267 1201.82 987.267 1203.32 983.267 1204.82C979.267 1206.32 971.767 1211.82 963.767 1206.32C957.367 1201.92 958.767 1195.49 960.267 1192.82" stroke="black"/>
<path id="arm_right_03" d="M914.043 777.511C922.179 802.283 930.688 894.923 938.13 950.203C947.26 955.583 949 936.823 951 933.823C953 930.823 958 930.823 959 933.823C959.8 936.223 957.383 938.823 956.074 939.823C951.049 943.283 946.065 959.527 966.327 996.823C986.588 1034.12 963.943 1031.22 950.087 1025.11C955.34 1053.57 962.111 1097.65 966.327 1121.86C971.597 1152.12 961.066 1161.48 956.074 1173.29C951.082 1185.1 965.886 1209.12 981.141 1194.96C996.396 1180.81 997.507 1196.02 1012.92 1201.87C1028.33 1207.71 1037.37 1196.37 1035.45 1177.65C1033.53 1158.93 1025.29 1166.29 1008.79 1139.41C992.299 1112.53 966.639 920.793 956.094 823.326C943.954 711.119 970.913 776.709 973.649 734.95C975.408 708.114 965.988 700.04 952.234 697.015C938.218 693.932 930.187 719.624 912.193 708.057C895.63 697.409 882.535 704.3 877.376 711.915C876.128 716.913 868.843 740.657 880.492 748.159C897.98 759.42 905.801 752.419 914.043 777.511Z" stroke="black"/>
<path id="arm_right_02" d="M948.244 667.662C950.359 659.076 905.05 644.11 882.131 637.701C866.704 634.57 865.823 640.384 866.263 646.197C866.704 652.011 874.638 652.011 880.808 653.352C886.979 654.694 891.386 656.93 893.59 667.662C895.794 678.395 869.789 681.973 861.415 687.786C853.041 693.6 863.619 701.649 869.789 700.755C875.96 699.86 886.538 690.916 893.59 690.916C900.642 690.916 904.168 694.047 916.069 697.624C927.969 701.202 926.206 691.811 936.343 684.656C946.481 677.501 945.599 678.395 948.244 667.662Z" stroke="black"/>
<path id="arm_right_01" d="M888 639.323C889.5 636.656 893.8 630.923 899 629.323C905.5 627.323 910 631.823 911 635.323C911.621 637.495 911.278 641.401 909.256 646.323M879 653.323C878 654.49 874.7 657.023 869.5 657.823C863 658.823 859 655.823 857.5 653.323C856 650.823 854 646.823 857.5 639.323C860.3 633.323 857.333 630.156 855.5 629.323C848.7 624.523 839.667 631.323 836 635.323C826.833 645.323 805.7 647.423 786.5 641.823C762.5 634.823 673 629.323 649.5 623.323C626 617.323 642.5 590.323 629 591.323C615.5 592.323 630.5 605.823 610.5 609.323C590.5 612.823 588 603.323 588 609.323C588 614.123 597.667 620.656 602.5 623.323C613.167 631.156 643.4 646.523 679 645.323C723.5 643.823 818.5 671.323 836 676.823C850 681.223 872.167 674.323 882 671.323C884.672 670.461 888.831 668.512 893 665.78" stroke="black"/>
</g>
<g id="heart">
<circle id="heart_main_05" cx="106" cy="106" r="105.5" transform="matrix(-1 0 0 1 866 789.823)" stroke="black"/>
<circle id="heart_main_04" cx="143" cy="143" r="142.5" transform="matrix(-1 0 0 1 903 752.823)" stroke="black"/>
<circle id="heart_main_03" cx="136" cy="136" r="135.5" transform="matrix(-1 0 0 1 896 759.823)" stroke="black"/>
<circle id="heart_main_02" cx="19" cy="19" r="18.5" transform="matrix(-1 0 0 1 779 876.823)" fill="black" stroke="black"/>
<path id="heart_main_01" d="M816.449 985.506L743.971 913.028C738.314 907.371 731.471 890.853 743.5 878.823C755.529 866.794 770.5 873.323 777.205 879.794L849.683 952.272" stroke="black"/>
<path id="heart_rvein_05" d="M759.5 790.323V660.823C760.333 636.715 751.2 582.265 708 557.323C654 526.146 639.5 492.823 639.5 404.823" stroke="black"/>
<path id="heart_rvein_04" d="M764.5 790.323V660.823C765.333 636.715 755.2 579.265 712 554.323C658 523.146 644.5 492.823 644.5 404.823" stroke="black"/>
<path id="heart_rvein_03" d="M769.5 790.323V660.823C770.333 636.715 760.2 577.265 717 552.323C663 521.146 649.5 492.823 649.5 404.823" stroke="black"/>
<path id="heart_rvein_02" d="M774.5 791.323V661.823C775.333 637.715 764.713 576.475 724 551.823C669.5 518.823 654.5 492.823 654.5 404.823" stroke="black"/>
<path id="heart_rvein_01" d="M779.5 792.323V662.823C780.333 638.715 770 574.754 728 549.323C673.5 516.323 659.5 492.823 659.5 404.823" stroke="black"/>
<path id="heart_lvein_04" d="M721 797.323C716.833 774.657 696.2 716.823 621 716.823C527 716.823 488 713.323 488 573.823C488 462.223 488 426.823 488 419.823" stroke="black"/>
<path id="heart_lvein_03" d="M711 802.823C706.833 780.157 679.7 734.823 604.5 734.823C510.5 734.823 459 719.323 459 579.823C459 468.223 459 426.323 459 419.323" stroke="black"/>
<path id="heart_lvein_02" d="M700 808.823C693.167 789.99 664 750.823 606 750.823C533.5 750.823 423 751.823 423 600.323C423 479.123 423 429.157 423 419.323" stroke="black"/>
<path id="heart_lvein_01" d="M689 817.323C682.5 797.823 653 763.323 558 768.323C463 773.323 401 726.823 385 692.823C381 684.323 367 661.823 367 601.323C367 564.923 367 464.823 367 419.323" stroke="black"/>
<path id="heart_lvein_01_2" d="M680.5 826.323C674 806.823 626 781.323 531 786.323C436 791.323 333.5 751.323 303 694.823C298.538 686.557 284 661.823 284 601.323C284 564.923 284 464.823 284 419.323" stroke="black"/>
<circle id="heart_lvein_end_04" cx="488" cy="409.823" r="9.5" stroke="black"/>
<circle id="heart_lvein_end_03" cx="459" cy="409.823" r="9.5" stroke="black"/>
<circle id="heart_lvein_end_02" cx="423" cy="409.823" r="9.5" stroke="black"/>
<circle id="heart_lvein_end_01" cx="367" cy="409.823" r="9.5" stroke="black"/>
<circle id="heart_lvein_end_01_2" cx="284" cy="409.823" r="9.5" stroke="black"/>
</g>
<g id="head">
<g id="teeth">
<path id="teeth_30" d="M549.149 409.525L547.926 410.862C546.702 412.199 546.331 422.685 547.952 427.537C551.72 428.584 558.192 429.318 560.776 427.537C561.388 422.87 562.245 413.135 560.776 411.531L558.94 409.525" stroke="black"/>
<path id="teeth_29" d="M561.089 388.312C562.382 389.336 562.133 405.916 561.086 408.747C558.441 410.874 550.795 411.583 547.664 408.749C546.007 402.957 546.722 393.27 547.341 389.131C549.373 386.918 555.679 384.025 561.089 388.312Z" stroke="black"/>
<path id="teeth_28" d="M546.032 388.489C547.106 389.477 546.893 405.485 546.022 408.219C543.823 410.274 537.47 410.962 534.87 408.227C533.496 402.635 534.094 393.283 534.609 389.286C536.299 387.148 541.539 384.352 546.032 388.489Z" stroke="black"/>
<path id="teeth_27" d="M533.851 389.471C534.615 390.363 533.861 405.434 533.24 407.904C531.673 409.762 527.135 410.656 525.284 408.188C524.309 403.139 524.303 393.749 524.672 390.139C525.877 388.208 530.654 385.737 533.851 389.471Z" stroke="black"/>
<path id="teeth_26" d="M523.799 390.692C524.37 391.551 524.527 406.474 524.061 408.857C522.887 410.65 518.713 411.904 517.33 409.525C517.33 404.846 516.65 394.825 516.929 391.343C517.831 389.479 521.408 387.093 523.799 390.692Z" stroke="black"/>
<path id="teeth_25" d="M516.498 391.905C516.973 392.71 517.083 407.844 516.106 409.525C515.129 411.207 512.361 412.704 511.211 410.474C510.607 405.908 510.547 395.783 510.78 392.518C511.532 390.77 514.51 388.531 516.498 391.905Z" stroke="black"/>
<path id="teeth_24" d="M510.437 393.12C510.818 393.874 510.772 408.621 509.986 410.194C509.2 411.766 507.105 412.571 506.182 410.486C505.699 406.217 505.655 396.75 505.843 393.697C506.448 392.062 508.841 389.967 510.437 393.12Z" stroke="black"/>
<path id="teeth_23" d="M505.606 394.441C505.892 395.186 505.847 409.782 505.255 411.339C504.663 412.897 503.087 413.695 502.394 411.632C502.034 407.407 502.007 398.037 502.151 395.015C502.607 393.396 504.408 391.321 505.606 394.441Z" stroke="black"/>
<path id="teeth_22" d="M536.299 409.525C535.832 409.966 535.55 409.966 535.029 410.608C533.752 413.623 532.688 422.28 535.218 426.539C538.399 427.493 543.815 427.654 545.997 426.028C547.021 422.079 546.482 411.958 544.866 410.194C544.254 409.525 544.548 409.658 543.642 409.525" stroke="black"/>
<path id="teeth_21" d="M527.12 409.525L525.968 410.297C525.162 413.19 524.484 421.491 526.072 425.571C528.073 426.483 531.481 426.631 532.856 425.069C533.504 421.282 534.222 410.804 532.867 410.008L531.404 408.857" stroke="black"/>
<path id="teeth_20" d="M522.225 410.194C522.837 410.862 524.311 410.886 524.673 411.531C525.306 412.661 525.1 421.571 524.411 424.344C523.224 425.713 520.355 425.15 518.627 424.351C517.255 420.774 517.766 414.298 518.463 411.761L519.777 410.862" stroke="black"/>
<path id="teeth_19" d="M517.426 412.58C518.005 413.426 517.76 420.671 517.409 422.901C516.808 424.003 515.358 423.554 514.484 422.913C513.794 420.038 514.058 414.831 514.413 412.791C514.875 411.645 516.18 410.76 517.426 412.58Z" stroke="black"/>
<path id="teeth_18" d="M513.79 412.465C514.37 413.217 514.127 419.657 513.776 421.639C513.174 422.619 511.723 422.219 510.848 421.649C510.156 419.093 510.419 414.464 510.773 412.651C511.236 411.632 512.542 410.847 513.79 412.465Z" stroke="black"/>
<path id="teeth_17" d="M509.789 412.199C510.401 412.199 510.139 418.907 509.789 420.889C509.187 421.869 508.216 421.459 507.341 420.889C506.649 418.334 506.987 414.681 507.341 412.868L507.341 412.868C507.953 412.199 507.953 412.199 509.789 412.199Z" stroke="black"/>
<path id="teeth_16" d="M506.482 412.188C506.991 412.187 506.77 418.895 506.478 420.878C505.976 421.858 505.168 421.449 504.44 420.879C503.865 418.324 504.148 414.671 504.444 412.858L504.444 412.857C504.954 412.189 504.954 412.189 506.482 412.188Z" stroke="black"/>
<path id="teeth_15" d="M574.85 409.579L576.074 410.916C577.298 412.253 577.669 422.738 576.048 427.591C572.28 428.637 565.808 429.371 563.224 427.591C562.612 422.924 561.755 413.188 563.224 411.584L565.06 409.579" stroke="black"/>
<path id="teeth_14" d="M562.911 388.365C561.618 389.39 561.867 405.969 562.914 408.8C565.559 410.927 573.205 411.636 576.336 408.802C577.993 403.01 577.278 393.323 576.659 389.185C574.627 386.972 568.321 384.078 562.911 388.365Z" stroke="black"/>
<path id="teeth_13" d="M577.968 388.542C576.894 389.53 577.107 405.538 577.978 408.272C580.177 410.327 586.53 411.016 589.13 408.281C590.504 402.689 589.906 393.336 589.391 389.339C587.701 387.202 582.461 384.405 577.968 388.542Z" stroke="black"/>
<path id="teeth_12" d="M590.149 389.524C589.385 390.416 590.139 405.488 590.76 407.958C592.327 409.815 596.865 410.71 598.716 408.242C599.691 403.192 599.697 393.802 599.328 390.193C598.123 388.261 593.346 385.791 590.149 389.524Z" stroke="black"/>
<path id="teeth_11" d="M600.201 390.745C599.63 391.604 599.472 406.527 599.939 408.91C601.113 410.703 605.287 411.958 606.67 409.579C606.67 404.899 607.35 394.879 607.071 391.397C606.169 389.533 602.592 387.146 600.201 390.745Z" stroke="black"/>
<path id="teeth_10" d="M607.502 391.958C607.027 392.764 606.917 407.897 607.894 409.579C608.871 411.26 611.639 412.758 612.789 410.527C613.393 405.962 613.453 395.836 613.22 392.571C612.468 390.823 609.49 388.584 607.502 391.958Z" stroke="black"/>
<path id="teeth_09" d="M613.563 393.174C613.182 393.927 613.228 408.674 614.013 410.247C614.799 411.82 616.895 412.625 617.818 410.54C618.301 406.271 618.345 396.803 618.157 393.75C617.552 392.115 615.159 390.02 613.563 393.174Z" stroke="black"/>
<path id="teeth_08" d="M618.394 394.494C618.108 395.239 618.153 409.835 618.745 411.393C619.337 412.95 620.913 413.748 621.606 411.685C621.966 407.46 621.993 398.09 621.849 395.068C621.393 393.449 619.592 391.374 618.394 394.494Z" stroke="black"/>
<path id="teeth_07" d="M587.701 409.579C588.168 410.019 588.45 410.019 588.971 410.661C590.248 413.677 591.312 422.334 588.782 426.592C585.601 427.546 580.185 427.707 578.003 426.081C576.979 422.132 577.518 412.011 579.134 410.247C579.746 409.579 579.452 409.712 580.358 409.579" stroke="black"/>
<path id="teeth_06" d="M596.88 409.579L598.032 410.351C598.838 413.243 599.516 421.545 597.928 425.625C595.927 426.536 592.519 426.684 591.144 425.123C590.496 421.335 589.778 410.857 591.133 410.061L592.596 408.91" stroke="black"/>
<path id="teeth_05" d="M601.775 410.247C601.163 410.916 599.689 410.939 599.327 411.584C598.694 412.714 598.9 421.624 599.589 424.397C600.776 425.766 603.645 425.203 605.373 424.404C606.745 420.827 606.234 414.351 605.537 411.815L604.223 410.916" stroke="black"/>
<path id="teeth_04" d="M606.574 412.633C605.995 413.479 606.24 420.724 606.59 422.955C607.192 424.057 608.642 423.607 609.516 422.967C610.206 420.092 609.942 414.884 609.587 412.844C609.125 411.698 607.82 410.814 606.574 412.633Z" stroke="black"/>
<path id="teeth_03" d="M610.21 412.518C609.63 413.27 609.873 419.71 610.223 421.693C610.825 422.672 612.277 422.272 613.152 421.702C613.844 419.146 613.581 414.518 613.227 412.704C612.764 411.686 611.458 410.9 610.21 412.518Z" stroke="black"/>
<path id="teeth_02" d="M614.211 412.253C613.599 412.253 613.861 418.96 614.211 420.943C614.813 421.922 615.784 421.513 616.659 420.943C617.351 418.387 617.013 414.734 616.659 412.921L616.659 412.921C616.047 412.253 616.047 412.253 614.211 412.253Z" stroke="black"/>
<path id="teeth_01" d="M617.518 412.241C617.009 412.241 617.23 418.949 617.522 420.931C618.024 421.911 618.832 421.502 619.56 420.933C620.135 418.377 619.852 414.725 619.556 412.911L619.556 412.911C619.046 412.242 619.046 412.242 617.518 412.241Z" stroke="black"/>
</g>
<path id="head_09" d="M528.181 510.823C546.997 510.823 544.739 504.327 561.297 503.6H562.803C579.361 504.327 577.103 510.823 595.919 510.823C614.735 510.823 603.758 480.894 632.046 473.782C659.649 466.843 657.635 451.188 632.046 429.4C611.574 411.969 590.366 434.212 585.85 438.569C579.606 444.595 574.56 440.022 562.518 440.022H561.013C548.97 440.022 543.925 444.595 537.681 438.569C533.165 434.212 512.526 411.969 492.055 429.4C466.465 451.188 464.189 467.642 492.055 473.782C520.207 479.985 509.365 510.823 528.181 510.823Z" stroke="black"/>
<path id="head_08" d="M565.223 291.823C564.858 292.005 564.676 294.332 566.865 302.187C569.054 310.041 574.345 311.641 576.716 311.459V306.55H580V315.823" stroke="black"/>
<path id="head_07" d="M557.792 291.823C558.132 292.005 558.303 294.332 556.259 302.187C554.216 310.041 549.278 311.641 547.065 311.459V306.55H544V315.823" stroke="black"/>
<path id="head_06" d="M578.111 321.882C577.334 317.805 575.778 315.086 569.556 312.368C565.957 310.795 561.779 312.368 563.334 320.523C564.89 328.678 561.001 329.358 568.001 337.513C575 345.668 569.556 353.823 575.778 353.823C582 353.823 582 349.066 582 347.027V336.154C582 331.396 578.889 325.96 578.111 321.882Z" stroke="black"/>
<path id="head_05" d="M545.889 321.882C546.666 317.805 548.222 315.086 554.444 312.368C558.043 310.795 562.221 312.368 560.666 320.523C559.11 328.678 562.999 329.358 555.999 337.513C549 345.668 554.444 353.823 548.222 353.823C542 353.823 542 349.066 542 347.027V336.154C542 331.396 545.111 325.96 545.889 321.882Z" stroke="black"/>
<path id="head_04" d="M647.049 373.823C646.049 352.823 660.549 324.823 671.049 302.823C665.467 315.156 655.652 343.523 661.049 358.323C667.795 376.823 648.049 394.823 647.049 373.823Z" stroke="black"/>
<path id="head_03" d="M478 373.823C479 352.823 464.5 324.823 454 302.823C459.582 315.156 469.397 343.523 464 358.323C457.254 376.823 477 394.823 478 373.823Z" stroke="black"/>
<path id="head_02" d="M608.34 314.336C605.465 316.152 602.257 318.725 598.808 322.283C579.601 342.095 596.14 341.024 618.015 378.505C622.639 388.143 636.54 395.525 640.957 351.197C643.091 329.779 634.555 323.622 630.82 315.322C629.947 313.382 628.833 310.55 627.847 307.395M608.34 314.336C621.474 306.041 627.645 313.565 618.015 315.322C614.046 316.046 610.931 315.607 608.34 314.336ZM608.34 314.336C603.372 311.899 600.33 306.402 596.888 300.181L596.674 299.794C592.082 291.499 577.611 285.584 583.189 274.54M652.162 314.528C653.432 313.719 654.477 312.603 655.363 311.298C658.995 305.951 659.957 297.431 662.832 293.904C667.634 288.014 661.232 279.447 655.363 268.738C649.494 258.029 632.954 257.494 621.216 256.958C609.479 256.423 602.543 253.745 587.604 268.738C585.521 270.828 584.092 272.751 583.189 274.54M583.189 274.54C584.825 277.085 586.452 279.662 587.604 281.589C590.805 286.943 598.808 286.943 599.875 293.369C600.729 298.509 606.633 306.576 609.479 309.968C610.546 308.718 614.387 306.112 621.216 305.684C624.441 305.482 626.143 306.196 627.847 307.395M583.189 274.54C581.188 271.428 579.174 268.364 578 266.596C579.245 255.53 586.11 234.898 603.61 240.895C625.485 248.391 647.893 241.966 655.363 252.139C662.832 262.313 660.165 262.848 667.634 268.738C673.61 273.45 673.389 276.252 672.5 277.323L672.073 277.8C670.474 278.693 668.555 281.445 673.673 285.304C678.79 289.163 682.745 284.768 684.083 282.088C686.215 278.336 689.414 263.328 684.083 227.416C678.752 191.503 688.347 197.935 670.755 168.455C650.497 134.509 591.453 121.823 560 121.823M627.847 307.395C630.653 309.369 633.464 312.657 643.091 315.322C644.674 315.76 646.089 315.946 647.36 315.921M627.847 307.395C626.021 301.554 624.633 294.606 626.018 290.156M655.363 311.298C656.43 314.068 660.378 320.141 667.634 322.283C676.171 324.803 874.53 356.717 882 358.323M652.162 314.528C655.363 319.255 661.765 327.637 667.101 329.779C671.142 331.402 870.608 372.503 879.5 374.823M652.162 314.528C650.833 315.373 649.258 315.883 647.36 315.921M647.36 315.921C650.383 322.861 658.564 337.383 667.101 339.953C675.637 342.523 868.886 390.538 876 392.323" stroke="black"/>
<path id="head_01" d="M515.66 314.336C518.535 316.152 521.743 318.725 525.192 322.283C544.399 342.095 527.86 341.024 505.985 378.505C501.361 388.143 487.46 395.525 483.043 351.197C480.909 329.779 489.445 323.622 493.18 315.322C494.009 313.479 494.662 310.919 495.394 307.956M515.66 314.336C502.526 306.041 496.355 313.565 505.985 315.322C509.954 316.046 513.069 315.607 515.66 314.336ZM515.66 314.336C520.628 311.899 523.67 306.402 527.112 300.181L527.326 299.794C531.918 291.499 546.389 285.584 540.811 274.54M471.838 314.528C470.568 313.719 469.523 312.603 468.637 311.298C465.005 305.951 464.043 297.431 461.168 293.904C457.75 289.712 460.008 284.163 463.711 277.451C463.816 277.259 463.923 277.067 464.031 276.874C465.454 274.322 467.065 271.607 468.637 268.738C474.506 258.029 491.046 257.494 502.784 256.958C503.897 256.907 504.967 256.837 506.005 256.765C507.025 256.694 508.014 256.62 508.983 256.561C517.414 256.041 524.267 256.566 536.396 268.738C538.479 270.828 539.908 272.751 540.811 274.54M540.811 274.54C539.175 277.085 537.548 279.662 536.396 281.589C533.195 286.943 525.192 286.943 524.125 293.369C523.271 298.509 517.367 306.576 514.521 309.968C513.454 308.718 509.613 306.112 502.784 305.684C499.083 305.452 497.388 306.427 495.394 307.956M540.811 274.54C542.812 271.428 544.826 268.364 546 266.596C544.755 255.53 537.89 234.898 520.39 240.895C498.515 248.391 476.107 241.966 468.637 252.139C461.168 262.313 463.835 262.848 456.366 268.738C450.39 273.45 450.611 276.38 451.5 277.451L451.927 277.8C453.526 278.693 455.445 281.445 450.327 285.304C445.21 289.163 441.255 284.768 439.917 282.088C437.785 278.336 434.586 263.328 439.917 227.416C445.248 191.503 435.653 197.935 453.245 168.455C473.503 134.509 528.547 121.823 560 121.823M495.394 307.956C492.789 309.953 489.674 312.895 480.909 315.322C479.326 315.76 477.911 315.946 476.64 315.921M468.637 311.298C467.57 314.068 463.622 320.141 456.366 322.283C447.829 324.803 249.47 356.717 242 358.323M471.838 314.528C468.637 319.255 462.235 327.637 456.899 329.779C452.858 331.402 253.392 372.503 244.5 374.823M471.838 314.528C473.167 315.373 474.742 315.883 476.64 315.921M476.64 315.921C473.617 322.861 465.436 337.383 456.899 339.953C448.363 342.523 255.114 390.538 248 392.323M535.848 277.326L536 277.323" stroke="black"/>
</g>
<g id="ui">
<path id="sparkle" d="M495.394 307.956C496.858 302.026 498.638 294.479 502.784 287.823C508.964 277.898 526.992 277.515 535.848 277.326M536 277.323C518.067 276.896 506.539 274.646 508.983 256.56C509.401 253.468 510.227 249.912 511.5 245.823C509.569 250.043 507.77 253.66 506.005 256.765C496.401 273.659 487.776 275.41 464.031 276.874C461.635 277.021 459.086 277.166 456.366 277.323C458.943 277.361 461.391 277.4 463.711 277.451C491.634 278.065 501.053 280.509 495.673 306.823" stroke="black"/>
<path id="ui_01" d="M884 321.823C884 375.786 870.726 426.648 847.265 471.323M240 321.823C240 373.584 252.213 422.492 273.914 465.823" stroke="black"/>
<path id="ui_02" d="M940 291.823C940 367.263 924.041 438.868 896.5 501.323M184 291.823C184 364.184 198.337 432.557 223.812 493.134" stroke="black"/>
<circle id="ui_03" cx="562" cy="321.823" r="271.5" stroke="black"/>
<circle id="ui_04" cx="562" cy="321.823" r="258.5" stroke="black"/>
<path id="ui_05" d="M760 1038.32V1275.32C760 1319.82 745.6 1373.32 698 1373.32C650.4 1373.32 637 1387.32 616 1390.32" stroke="black"/>
<path id="ui_06" d="M753 1038.32V1275.32C753 1319.82 733.325 1355.83 682 1351.32C653.5 1348.82 649.5 1326.82 616 1319.32" stroke="black"/>
<path id="ui_07" d="M774 1037.32V1274.32C774 1313.82 780 1386.82 729.5 1396.82C679 1406.82 676.5 1454.32 635.5 1463.82C632.833 1464.32 627.2 1465.32 626 1465.32" stroke="black"/>
<path id="ui_08" d="M781.221 1036.82V1274.32C781.221 1313.32 781.221 1374.82 825.721 1396.82C870.221 1418.82 917.964 1396.82 943 1340.32C953.248 1317.2 972.609 1298.14 988.5 1288.5C989.173 1288.09 989.84 1287.7 990.5 1287.32" stroke="black"/>
<path id="ui_09" d="M789.221 1035.82V1273.32C789.221 1312.32 797 1404.82 841.5 1426.82C886 1448.82 931.464 1409.32 956.5 1352.82C971.123 1319.82 994.5 1313.82 1022 1313.82" stroke="black"/>
<path id="ui_10" d="M797.221 1033.82V1271.32C797.221 1371.32 840.5 1453.82 868.5 1479.82C896.5 1505.82 932.159 1505.32 956.5 1479.82C967 1468.82 980 1454.32 1007.5 1454.32" stroke="black"/>
<path id="ui_11" d="M767 1038.32V1274.32C767 1315.82 765.5 1375.32 715 1385.32C664.5 1395.32 663 1419.32 622 1428.82" stroke="black"/>
<path id="ui_12" d="M162.5 882.823C150 887.323 145.242 903.823 143.5 909.823C141.758 915.823 130.665 963.986 147.5 993.823C130.665 963.986 107.058 943.798 107.058 913.801C107.058 886.823 127 859.823 166 854.823M147.5 993.823C130.665 963.986 125.46 941.638 128.562 911.801C131.043 887.932 145.496 870.323 164.5 866.823M157.802 1129.56C180.396 1115.31 187.839 1108.19 188.371 1089.49C188.852 1072.56 182.27 1045.66 174 1034.82C182.27 1045.66 193.725 1075.68 193.244 1092.6C192.801 1108.19 185.712 1119.77 157.802 1138.92M174 1034.82C182.27 1045.66 198.155 1075.68 197.674 1092.6C197.231 1108.19 195.016 1120.66 158.688 1147.82" stroke="black"/>
<rect id="ui_13" x="835.5" y="471.323" width="12" height="12" stroke="black"/>
<rect id="ui_14" x="823.5" y="483.323" width="12" height="12" stroke="black"/>
<rect id="ui_15" x="872.5" y="513.323" width="12" height="12" stroke="black"/>
<rect id="ui_16" x="860.5" y="525.323" width="12" height="12" stroke="black"/>
<rect id="ui_17" x="884.5" y="501.323" width="12" height="12" stroke="black"/>
<path id="ui_18" d="M760.704 238.982C802.785 356.491 741.638 485.864 624.129 527.944C506.62 570.025 377.247 508.878 335.167 391.369C293.086 273.86 354.233 144.487 471.742 102.407C589.251 60.3264 718.624 121.473 760.704 238.982Z" fill="black"/>
<g id="ui_19">
<path d="M197.184 949.323C220.11 949.323 238.684 967.685 238.684 990.323C238.684 1012.96 220.11 1031.32 197.184 1031.32C174.259 1031.32 155.684 1012.96 155.684 990.323C155.684 967.685 174.259 949.323 197.184 949.323Z" stroke="black"/>
<path d="M197.184 949.323C220.11 949.323 238.684 967.685 238.684 990.323C238.684 1012.96 220.11 1031.32 197.184 1031.32C174.259 1031.32 155.684 1012.96 155.684 990.323C155.684 967.685 174.259 949.323 197.184 949.323Z" stroke="black"/>
</g>
<g id="ui_20">
<path d="M197.184 949.323C220.11 949.323 238.684 967.685 238.684 990.323C238.684 1012.96 220.11 1031.32 197.184 1031.32C174.259 1031.32 155.684 1012.96 155.684 990.323C155.684 967.685 174.259 949.323 197.184 949.323Z" stroke="black"/>
<path d="M197.184 949.323C220.11 949.323 238.684 967.685 238.684 990.323C238.684 1012.96 220.11 1031.32 197.184 1031.32C174.259 1031.32 155.684 1012.96 155.684 990.323C155.684 967.685 174.259 949.323 197.184 949.323Z" stroke="black"/>
</g>
<g id="ui_21">
<circle cx="197.5" cy="990.323" r="10" stroke="black"/>
<circle cx="197.5" cy="990.323" r="10" stroke="black"/>
</g>
<path id="ui_22" d="M568 616.323L568 617.823M574.5 651.823V663.323M581 641.823V664.323M568 503.823V570.323M574.5 505.823V566.823M581 508.323V569.323M581 593.823V615.323M574.5 602.823V614.323" stroke="black"/>
</g>
</g>
</svg>
